M48
;DRILL file {Pcbnew (2012-apr-16-27)-stable} date Wed 14 May 2014 05:31:06 PM MSK
;FORMAT={-:-/ absolute / metric / decimal}
FMAT,2
METRIC,TZ
T1C0.635
T2C0.762
T3C0.813
T4C1.001
T5C1.016
T6C2.301
%
G90
G05
M71
T1
X105.156Y76.962
X105.156Y81.534
T2
X117.460Y79.499
X122.540Y79.499
T3
X123.919Y67.501
X134.079Y67.501
T4
X107.696Y75.692
X107.696Y78.232
X107.696Y80.264
X107.696Y82.804
T5
X136.144Y88.138
X136.144Y90.678
X138.684Y88.138
X138.684Y90.678
X141.224Y88.138
X141.224Y90.678
X143.764Y88.138
X143.764Y90.678
T6
X105.029Y72.136
X105.029Y85.852
T0
M30
