G04 (created by PCBNEW-RS274X (2012-apr-16-27)-stable) date Wed 14 May 2014 05:30:57 PM MSK*
G01*
G70*
G90*
%MOIN*%
G04 Gerber Fmt 3.4, Leading zero omitted, Abs format*
%FSLAX34Y34*%
G04 APERTURE LIST*
%ADD10C,0.006000*%
%ADD11C,0.012000*%
%ADD12C,0.079100*%
%ADD13C,0.138100*%
%ADD14R,0.098700X0.037700*%
%ADD15R,0.037700X0.098700*%
%ADD16R,0.164000X0.100000*%
%ADD17R,0.060000X0.100000*%
%ADD18R,0.120000X0.070000*%
%ADD19R,0.055000X0.075000*%
%ADD20R,0.075000X0.055000*%
%ADD21R,0.080000X0.080000*%
%ADD22C,0.080000*%
%ADD23R,0.067200X0.067200*%
%ADD24C,0.076000*%
%ADD25C,0.065000*%
G04 APERTURE END LIST*
G54D10*
G54D11*
X40200Y-34700D02*
X40200Y-33900D01*
X41000Y-35500D02*
X40200Y-34700D01*
X46000Y-35500D02*
X41000Y-35500D01*
X40200Y-27800D02*
X40200Y-34000D01*
X41000Y-27000D02*
X40200Y-27800D01*
X46000Y-27000D02*
X41000Y-27000D01*
X59300Y-36700D02*
X59200Y-36800D01*
X59300Y-36600D02*
X59300Y-36700D01*
X59300Y-25800D02*
X59300Y-36600D01*
X59200Y-25700D02*
X59300Y-25800D01*
X58500Y-25000D02*
X48000Y-25000D01*
X58500Y-37500D02*
X59200Y-36800D01*
X58500Y-25000D02*
X59200Y-25700D01*
X48000Y-37500D02*
X58500Y-37500D01*
X46000Y-35500D02*
X48000Y-37500D01*
X46000Y-27000D02*
X48000Y-25000D01*
G54D12*
X42400Y-32600D03*
X42400Y-31600D03*
X42400Y-30800D03*
X42400Y-29800D03*
G54D13*
X41350Y-33800D03*
X41350Y-28400D03*
G54D14*
X51844Y-30621D03*
X51844Y-30306D03*
X51844Y-29991D03*
X51844Y-29676D03*
X51844Y-29361D03*
X51844Y-29046D03*
X51844Y-28731D03*
X51844Y-28416D03*
X55610Y-28418D03*
X55610Y-30628D03*
X55610Y-30308D03*
X55610Y-29988D03*
X55610Y-29678D03*
X55610Y-29358D03*
X55610Y-29048D03*
X55610Y-28728D03*
G54D15*
X52628Y-27628D03*
X52942Y-27628D03*
X53258Y-27628D03*
X53572Y-27628D03*
X53888Y-27628D03*
X54202Y-27628D03*
X54518Y-27628D03*
X54832Y-27628D03*
X52630Y-31408D03*
X52940Y-31408D03*
X53260Y-31408D03*
X53570Y-31408D03*
X53880Y-31408D03*
X54200Y-31408D03*
X54520Y-31408D03*
X54840Y-31408D03*
G54D16*
X50787Y-31574D03*
G54D17*
X50787Y-34174D03*
X51687Y-34174D03*
X49887Y-34174D03*
G54D18*
X44300Y-27600D03*
X44300Y-28800D03*
X44300Y-30900D03*
X44300Y-29700D03*
G54D19*
X57725Y-26500D03*
X58475Y-26500D03*
X57725Y-28000D03*
X58475Y-28000D03*
X57725Y-29900D03*
X58475Y-29900D03*
X57725Y-31500D03*
X58475Y-31500D03*
G54D20*
X46260Y-32893D03*
X46260Y-33643D03*
G54D19*
X48247Y-27953D03*
X48997Y-27953D03*
X48997Y-28740D03*
X48247Y-28740D03*
X48997Y-29528D03*
X48247Y-29528D03*
G54D20*
X57800Y-34725D03*
X57800Y-35475D03*
X51750Y-35025D03*
X51750Y-35775D03*
X48228Y-32893D03*
X48228Y-33643D03*
G54D21*
X56600Y-35700D03*
G54D22*
X56600Y-34700D03*
X55600Y-35700D03*
X55600Y-34700D03*
X54600Y-35700D03*
X54600Y-34700D03*
X53600Y-35700D03*
X53600Y-34700D03*
G54D23*
X57461Y-27259D03*
X58287Y-27259D03*
X57461Y-28834D03*
X58287Y-28834D03*
X57461Y-30709D03*
X58287Y-30709D03*
X57461Y-32283D03*
X58287Y-32283D03*
G54D24*
X46244Y-31299D03*
X48244Y-31299D03*
G54D22*
X48787Y-26575D03*
X52787Y-26575D03*
G54D20*
X50950Y-28925D03*
X50950Y-29675D03*
G54D25*
X41400Y-30300D03*
X41400Y-32100D03*
M02*
