G04 (created by PCBNEW-RS274X (2012-apr-16-27)-stable) date Wed 14 May 2014 05:30:57 PM MSK*
G01*
G70*
G90*
%MOIN*%
G04 Gerber Fmt 3.4, Leading zero omitted, Abs format*
%FSLAX34Y34*%
G04 APERTURE LIST*
%ADD10C,0.006000*%
%ADD11C,0.012000*%
%ADD12C,0.005000*%
%ADD13C,0.008000*%
%ADD14C,0.002600*%
%ADD15C,0.004000*%
%ADD16C,0.002000*%
%ADD17C,0.012500*%
G04 APERTURE END LIST*
G54D10*
G54D11*
X40200Y-34700D02*
X40200Y-33900D01*
X41000Y-35500D02*
X40200Y-34700D01*
X46000Y-35500D02*
X41000Y-35500D01*
X40200Y-27800D02*
X40200Y-34000D01*
X41000Y-27000D02*
X40200Y-27800D01*
X46000Y-27000D02*
X41000Y-27000D01*
X59300Y-36700D02*
X59200Y-36800D01*
X59300Y-36600D02*
X59300Y-36700D01*
X59300Y-25800D02*
X59300Y-36600D01*
X59200Y-25700D02*
X59300Y-25800D01*
X58500Y-25000D02*
X48000Y-25000D01*
X58500Y-37500D02*
X59200Y-36800D01*
X58500Y-25000D02*
X59200Y-25700D01*
X48000Y-37500D02*
X58500Y-37500D01*
X46000Y-35500D02*
X48000Y-37500D01*
X46000Y-27000D02*
X48000Y-25000D01*
G54D12*
X42850Y-34150D02*
X37300Y-34150D01*
X37300Y-28250D02*
X42850Y-28250D01*
X42850Y-34150D02*
X42850Y-28250D01*
X37300Y-34150D02*
X37300Y-28250D01*
G54D10*
X55720Y-30618D02*
X55270Y-30618D01*
X55720Y-28438D02*
X55280Y-28438D01*
X55720Y-30618D02*
X55720Y-28438D01*
X54840Y-31088D02*
X54840Y-31518D01*
X52630Y-31098D02*
X52630Y-31518D01*
X52620Y-31518D02*
X54840Y-31528D01*
X52640Y-27548D02*
X54810Y-27538D01*
X52210Y-28238D02*
X52210Y-31068D01*
X54820Y-27548D02*
X54820Y-27958D01*
X52460Y-27998D02*
X55240Y-27998D01*
X55260Y-31078D02*
X55260Y-28038D01*
X52210Y-31078D02*
X55210Y-31078D01*
X51760Y-28408D02*
X51760Y-30628D01*
X51760Y-30628D02*
X52210Y-30628D01*
X52214Y-28228D02*
X52444Y-27998D01*
X51762Y-28408D02*
X52214Y-28408D01*
X52640Y-27998D02*
X52640Y-27546D01*
X52810Y-28402D02*
X52806Y-28438D01*
X52795Y-28473D01*
X52778Y-28506D01*
X52755Y-28534D01*
X52727Y-28557D01*
X52694Y-28575D01*
X52659Y-28586D01*
X52623Y-28589D01*
X52587Y-28586D01*
X52552Y-28576D01*
X52520Y-28559D01*
X52491Y-28536D01*
X52467Y-28508D01*
X52450Y-28476D01*
X52439Y-28441D01*
X52435Y-28404D01*
X52438Y-28369D01*
X52448Y-28333D01*
X52464Y-28301D01*
X52487Y-28272D01*
X52515Y-28248D01*
X52547Y-28230D01*
X52582Y-28219D01*
X52619Y-28215D01*
X52654Y-28217D01*
X52689Y-28227D01*
X52722Y-28244D01*
X52751Y-28266D01*
X52775Y-28294D01*
X52793Y-28326D01*
X52805Y-28361D01*
X52809Y-28397D01*
X52810Y-28402D01*
G54D13*
X49387Y-33474D02*
X49387Y-34674D01*
X49387Y-34674D02*
X52187Y-34674D01*
X52187Y-34674D02*
X52187Y-33474D01*
X49387Y-32274D02*
X49387Y-31974D01*
X49387Y-31974D02*
X49987Y-31074D01*
X49987Y-31074D02*
X51587Y-31074D01*
X51587Y-31074D02*
X52187Y-31974D01*
X52187Y-31974D02*
X52187Y-32274D01*
G54D12*
X43770Y-27250D02*
X43768Y-27263D01*
X43764Y-27276D01*
X43758Y-27288D01*
X43749Y-27299D01*
X43739Y-27308D01*
X43727Y-27314D01*
X43714Y-27318D01*
X43700Y-27319D01*
X43687Y-27318D01*
X43674Y-27314D01*
X43662Y-27308D01*
X43652Y-27300D01*
X43643Y-27289D01*
X43636Y-27277D01*
X43632Y-27264D01*
X43631Y-27250D01*
X43632Y-27238D01*
X43635Y-27225D01*
X43642Y-27213D01*
X43650Y-27202D01*
X43661Y-27193D01*
X43672Y-27186D01*
X43685Y-27182D01*
X43699Y-27181D01*
X43712Y-27182D01*
X43725Y-27185D01*
X43737Y-27191D01*
X43748Y-27200D01*
X43757Y-27210D01*
X43763Y-27222D01*
X43768Y-27235D01*
X43769Y-27249D01*
X43770Y-27250D01*
X44850Y-27900D02*
X44850Y-27300D01*
X44850Y-27300D02*
X43750Y-27300D01*
X43750Y-27300D02*
X43750Y-27900D01*
X43750Y-28500D02*
X43750Y-29100D01*
X43750Y-29100D02*
X44850Y-29100D01*
X44850Y-29100D02*
X44850Y-28500D01*
X44970Y-31250D02*
X44968Y-31263D01*
X44964Y-31276D01*
X44958Y-31288D01*
X44949Y-31299D01*
X44939Y-31308D01*
X44927Y-31314D01*
X44914Y-31318D01*
X44900Y-31319D01*
X44887Y-31318D01*
X44874Y-31314D01*
X44862Y-31308D01*
X44852Y-31300D01*
X44843Y-31289D01*
X44836Y-31277D01*
X44832Y-31264D01*
X44831Y-31250D01*
X44832Y-31238D01*
X44835Y-31225D01*
X44842Y-31213D01*
X44850Y-31202D01*
X44861Y-31193D01*
X44872Y-31186D01*
X44885Y-31182D01*
X44899Y-31181D01*
X44912Y-31182D01*
X44925Y-31185D01*
X44937Y-31191D01*
X44948Y-31200D01*
X44957Y-31210D01*
X44963Y-31222D01*
X44968Y-31235D01*
X44969Y-31249D01*
X44970Y-31250D01*
X43750Y-30600D02*
X43750Y-31200D01*
X43750Y-31200D02*
X44850Y-31200D01*
X44850Y-31200D02*
X44850Y-30600D01*
X44850Y-30000D02*
X44850Y-29400D01*
X44850Y-29400D02*
X43750Y-29400D01*
X43750Y-29400D02*
X43750Y-30000D01*
X57500Y-26800D02*
X57499Y-26809D01*
X57496Y-26819D01*
X57491Y-26827D01*
X57485Y-26835D01*
X57477Y-26841D01*
X57469Y-26846D01*
X57460Y-26848D01*
X57450Y-26849D01*
X57441Y-26849D01*
X57432Y-26846D01*
X57423Y-26841D01*
X57416Y-26835D01*
X57409Y-26828D01*
X57405Y-26819D01*
X57402Y-26810D01*
X57401Y-26800D01*
X57401Y-26791D01*
X57404Y-26782D01*
X57408Y-26773D01*
X57415Y-26766D01*
X57422Y-26759D01*
X57430Y-26755D01*
X57440Y-26752D01*
X57449Y-26751D01*
X57458Y-26751D01*
X57468Y-26754D01*
X57476Y-26758D01*
X57484Y-26764D01*
X57490Y-26772D01*
X57495Y-26780D01*
X57498Y-26789D01*
X57499Y-26799D01*
X57500Y-26800D01*
X57900Y-26800D02*
X57500Y-26800D01*
X57500Y-26800D02*
X57500Y-26200D01*
X57500Y-26200D02*
X57900Y-26200D01*
X58300Y-26200D02*
X58700Y-26200D01*
X58700Y-26200D02*
X58700Y-26800D01*
X58700Y-26800D02*
X58300Y-26800D01*
X57500Y-28300D02*
X57499Y-28309D01*
X57496Y-28319D01*
X57491Y-28327D01*
X57485Y-28335D01*
X57477Y-28341D01*
X57469Y-28346D01*
X57460Y-28348D01*
X57450Y-28349D01*
X57441Y-28349D01*
X57432Y-28346D01*
X57423Y-28341D01*
X57416Y-28335D01*
X57409Y-28328D01*
X57405Y-28319D01*
X57402Y-28310D01*
X57401Y-28300D01*
X57401Y-28291D01*
X57404Y-28282D01*
X57408Y-28273D01*
X57415Y-28266D01*
X57422Y-28259D01*
X57430Y-28255D01*
X57440Y-28252D01*
X57449Y-28251D01*
X57458Y-28251D01*
X57468Y-28254D01*
X57476Y-28258D01*
X57484Y-28264D01*
X57490Y-28272D01*
X57495Y-28280D01*
X57498Y-28289D01*
X57499Y-28299D01*
X57500Y-28300D01*
X57900Y-28300D02*
X57500Y-28300D01*
X57500Y-28300D02*
X57500Y-27700D01*
X57500Y-27700D02*
X57900Y-27700D01*
X58300Y-27700D02*
X58700Y-27700D01*
X58700Y-27700D02*
X58700Y-28300D01*
X58700Y-28300D02*
X58300Y-28300D01*
X57500Y-30200D02*
X57499Y-30209D01*
X57496Y-30219D01*
X57491Y-30227D01*
X57485Y-30235D01*
X57477Y-30241D01*
X57469Y-30246D01*
X57460Y-30248D01*
X57450Y-30249D01*
X57441Y-30249D01*
X57432Y-30246D01*
X57423Y-30241D01*
X57416Y-30235D01*
X57409Y-30228D01*
X57405Y-30219D01*
X57402Y-30210D01*
X57401Y-30200D01*
X57401Y-30191D01*
X57404Y-30182D01*
X57408Y-30173D01*
X57415Y-30166D01*
X57422Y-30159D01*
X57430Y-30155D01*
X57440Y-30152D01*
X57449Y-30151D01*
X57458Y-30151D01*
X57468Y-30154D01*
X57476Y-30158D01*
X57484Y-30164D01*
X57490Y-30172D01*
X57495Y-30180D01*
X57498Y-30189D01*
X57499Y-30199D01*
X57500Y-30200D01*
X57900Y-30200D02*
X57500Y-30200D01*
X57500Y-30200D02*
X57500Y-29600D01*
X57500Y-29600D02*
X57900Y-29600D01*
X58300Y-29600D02*
X58700Y-29600D01*
X58700Y-29600D02*
X58700Y-30200D01*
X58700Y-30200D02*
X58300Y-30200D01*
X57500Y-31800D02*
X57499Y-31809D01*
X57496Y-31819D01*
X57491Y-31827D01*
X57485Y-31835D01*
X57477Y-31841D01*
X57469Y-31846D01*
X57460Y-31848D01*
X57450Y-31849D01*
X57441Y-31849D01*
X57432Y-31846D01*
X57423Y-31841D01*
X57416Y-31835D01*
X57409Y-31828D01*
X57405Y-31819D01*
X57402Y-31810D01*
X57401Y-31800D01*
X57401Y-31791D01*
X57404Y-31782D01*
X57408Y-31773D01*
X57415Y-31766D01*
X57422Y-31759D01*
X57430Y-31755D01*
X57440Y-31752D01*
X57449Y-31751D01*
X57458Y-31751D01*
X57468Y-31754D01*
X57476Y-31758D01*
X57484Y-31764D01*
X57490Y-31772D01*
X57495Y-31780D01*
X57498Y-31789D01*
X57499Y-31799D01*
X57500Y-31800D01*
X57900Y-31800D02*
X57500Y-31800D01*
X57500Y-31800D02*
X57500Y-31200D01*
X57500Y-31200D02*
X57900Y-31200D01*
X58300Y-31200D02*
X58700Y-31200D01*
X58700Y-31200D02*
X58700Y-31800D01*
X58700Y-31800D02*
X58300Y-31800D01*
X46010Y-32618D02*
X46009Y-32627D01*
X46006Y-32637D01*
X46001Y-32645D01*
X45995Y-32653D01*
X45987Y-32659D01*
X45979Y-32664D01*
X45970Y-32666D01*
X45960Y-32667D01*
X45951Y-32667D01*
X45942Y-32664D01*
X45933Y-32659D01*
X45926Y-32653D01*
X45919Y-32646D01*
X45915Y-32637D01*
X45912Y-32628D01*
X45911Y-32618D01*
X45911Y-32609D01*
X45914Y-32600D01*
X45918Y-32591D01*
X45925Y-32584D01*
X45932Y-32577D01*
X45940Y-32573D01*
X45950Y-32570D01*
X45959Y-32569D01*
X45968Y-32569D01*
X45978Y-32572D01*
X45986Y-32576D01*
X45994Y-32582D01*
X46000Y-32590D01*
X46005Y-32598D01*
X46008Y-32607D01*
X46009Y-32617D01*
X46010Y-32618D01*
X45960Y-33068D02*
X45960Y-32668D01*
X45960Y-32668D02*
X46560Y-32668D01*
X46560Y-32668D02*
X46560Y-33068D01*
X46560Y-33468D02*
X46560Y-33868D01*
X46560Y-33868D02*
X45960Y-33868D01*
X45960Y-33868D02*
X45960Y-33468D01*
X48022Y-28253D02*
X48021Y-28262D01*
X48018Y-28272D01*
X48013Y-28280D01*
X48007Y-28288D01*
X47999Y-28294D01*
X47991Y-28299D01*
X47982Y-28301D01*
X47972Y-28302D01*
X47963Y-28302D01*
X47954Y-28299D01*
X47945Y-28294D01*
X47938Y-28288D01*
X47931Y-28281D01*
X47927Y-28272D01*
X47924Y-28263D01*
X47923Y-28253D01*
X47923Y-28244D01*
X47926Y-28235D01*
X47930Y-28226D01*
X47937Y-28219D01*
X47944Y-28212D01*
X47952Y-28208D01*
X47962Y-28205D01*
X47971Y-28204D01*
X47980Y-28204D01*
X47990Y-28207D01*
X47998Y-28211D01*
X48006Y-28217D01*
X48012Y-28225D01*
X48017Y-28233D01*
X48020Y-28242D01*
X48021Y-28252D01*
X48022Y-28253D01*
X48422Y-28253D02*
X48022Y-28253D01*
X48022Y-28253D02*
X48022Y-27653D01*
X48022Y-27653D02*
X48422Y-27653D01*
X48822Y-27653D02*
X49222Y-27653D01*
X49222Y-27653D02*
X49222Y-28253D01*
X49222Y-28253D02*
X48822Y-28253D01*
X49322Y-28440D02*
X49321Y-28449D01*
X49318Y-28459D01*
X49313Y-28467D01*
X49307Y-28475D01*
X49299Y-28481D01*
X49291Y-28486D01*
X49282Y-28488D01*
X49272Y-28489D01*
X49263Y-28489D01*
X49254Y-28486D01*
X49245Y-28481D01*
X49238Y-28475D01*
X49231Y-28468D01*
X49227Y-28459D01*
X49224Y-28450D01*
X49223Y-28440D01*
X49223Y-28431D01*
X49226Y-28422D01*
X49230Y-28413D01*
X49237Y-28406D01*
X49244Y-28399D01*
X49252Y-28395D01*
X49262Y-28392D01*
X49271Y-28391D01*
X49280Y-28391D01*
X49290Y-28394D01*
X49298Y-28398D01*
X49306Y-28404D01*
X49312Y-28412D01*
X49317Y-28420D01*
X49320Y-28429D01*
X49321Y-28439D01*
X49322Y-28440D01*
X48822Y-28440D02*
X49222Y-28440D01*
X49222Y-28440D02*
X49222Y-29040D01*
X49222Y-29040D02*
X48822Y-29040D01*
X48422Y-29040D02*
X48022Y-29040D01*
X48022Y-29040D02*
X48022Y-28440D01*
X48022Y-28440D02*
X48422Y-28440D01*
X49322Y-29228D02*
X49321Y-29237D01*
X49318Y-29247D01*
X49313Y-29255D01*
X49307Y-29263D01*
X49299Y-29269D01*
X49291Y-29274D01*
X49282Y-29276D01*
X49272Y-29277D01*
X49263Y-29277D01*
X49254Y-29274D01*
X49245Y-29269D01*
X49238Y-29263D01*
X49231Y-29256D01*
X49227Y-29247D01*
X49224Y-29238D01*
X49223Y-29228D01*
X49223Y-29219D01*
X49226Y-29210D01*
X49230Y-29201D01*
X49237Y-29194D01*
X49244Y-29187D01*
X49252Y-29183D01*
X49262Y-29180D01*
X49271Y-29179D01*
X49280Y-29179D01*
X49290Y-29182D01*
X49298Y-29186D01*
X49306Y-29192D01*
X49312Y-29200D01*
X49317Y-29208D01*
X49320Y-29217D01*
X49321Y-29227D01*
X49322Y-29228D01*
X48822Y-29228D02*
X49222Y-29228D01*
X49222Y-29228D02*
X49222Y-29828D01*
X49222Y-29828D02*
X48822Y-29828D01*
X48422Y-29828D02*
X48022Y-29828D01*
X48022Y-29828D02*
X48022Y-29228D01*
X48022Y-29228D02*
X48422Y-29228D01*
X57550Y-34450D02*
X57549Y-34459D01*
X57546Y-34469D01*
X57541Y-34477D01*
X57535Y-34485D01*
X57527Y-34491D01*
X57519Y-34496D01*
X57510Y-34498D01*
X57500Y-34499D01*
X57491Y-34499D01*
X57482Y-34496D01*
X57473Y-34491D01*
X57466Y-34485D01*
X57459Y-34478D01*
X57455Y-34469D01*
X57452Y-34460D01*
X57451Y-34450D01*
X57451Y-34441D01*
X57454Y-34432D01*
X57458Y-34423D01*
X57465Y-34416D01*
X57472Y-34409D01*
X57480Y-34405D01*
X57490Y-34402D01*
X57499Y-34401D01*
X57508Y-34401D01*
X57518Y-34404D01*
X57526Y-34408D01*
X57534Y-34414D01*
X57540Y-34422D01*
X57545Y-34430D01*
X57548Y-34439D01*
X57549Y-34449D01*
X57550Y-34450D01*
X57500Y-34900D02*
X57500Y-34500D01*
X57500Y-34500D02*
X58100Y-34500D01*
X58100Y-34500D02*
X58100Y-34900D01*
X58100Y-35300D02*
X58100Y-35700D01*
X58100Y-35700D02*
X57500Y-35700D01*
X57500Y-35700D02*
X57500Y-35300D01*
X51500Y-34750D02*
X51499Y-34759D01*
X51496Y-34769D01*
X51491Y-34777D01*
X51485Y-34785D01*
X51477Y-34791D01*
X51469Y-34796D01*
X51460Y-34798D01*
X51450Y-34799D01*
X51441Y-34799D01*
X51432Y-34796D01*
X51423Y-34791D01*
X51416Y-34785D01*
X51409Y-34778D01*
X51405Y-34769D01*
X51402Y-34760D01*
X51401Y-34750D01*
X51401Y-34741D01*
X51404Y-34732D01*
X51408Y-34723D01*
X51415Y-34716D01*
X51422Y-34709D01*
X51430Y-34705D01*
X51440Y-34702D01*
X51449Y-34701D01*
X51458Y-34701D01*
X51468Y-34704D01*
X51476Y-34708D01*
X51484Y-34714D01*
X51490Y-34722D01*
X51495Y-34730D01*
X51498Y-34739D01*
X51499Y-34749D01*
X51500Y-34750D01*
X51450Y-35200D02*
X51450Y-34800D01*
X51450Y-34800D02*
X52050Y-34800D01*
X52050Y-34800D02*
X52050Y-35200D01*
X52050Y-35600D02*
X52050Y-36000D01*
X52050Y-36000D02*
X51450Y-36000D01*
X51450Y-36000D02*
X51450Y-35600D01*
X47978Y-32618D02*
X47977Y-32627D01*
X47974Y-32637D01*
X47969Y-32645D01*
X47963Y-32653D01*
X47955Y-32659D01*
X47947Y-32664D01*
X47938Y-32666D01*
X47928Y-32667D01*
X47919Y-32667D01*
X47910Y-32664D01*
X47901Y-32659D01*
X47894Y-32653D01*
X47887Y-32646D01*
X47883Y-32637D01*
X47880Y-32628D01*
X47879Y-32618D01*
X47879Y-32609D01*
X47882Y-32600D01*
X47886Y-32591D01*
X47893Y-32584D01*
X47900Y-32577D01*
X47908Y-32573D01*
X47918Y-32570D01*
X47927Y-32569D01*
X47936Y-32569D01*
X47946Y-32572D01*
X47954Y-32576D01*
X47962Y-32582D01*
X47968Y-32590D01*
X47973Y-32598D01*
X47976Y-32607D01*
X47977Y-32617D01*
X47978Y-32618D01*
X47928Y-33068D02*
X47928Y-32668D01*
X47928Y-32668D02*
X48528Y-32668D01*
X48528Y-32668D02*
X48528Y-33068D01*
X48528Y-33468D02*
X48528Y-33868D01*
X48528Y-33868D02*
X47928Y-33868D01*
X47928Y-33868D02*
X47928Y-33468D01*
G54D14*
X58070Y-27377D02*
X58070Y-27505D01*
X58070Y-27505D02*
X58267Y-27505D01*
X58267Y-27377D02*
X58267Y-27505D01*
X58070Y-27377D02*
X58267Y-27377D01*
X58070Y-27132D02*
X58070Y-27191D01*
X58070Y-27191D02*
X58169Y-27191D01*
X58169Y-27132D02*
X58169Y-27191D01*
X58070Y-27132D02*
X58169Y-27132D01*
X58070Y-27327D02*
X58070Y-27386D01*
X58070Y-27386D02*
X58169Y-27386D01*
X58169Y-27327D02*
X58169Y-27386D01*
X58070Y-27327D02*
X58169Y-27327D01*
X58070Y-27181D02*
X58070Y-27337D01*
X58070Y-27337D02*
X58139Y-27337D01*
X58139Y-27181D02*
X58139Y-27337D01*
X58070Y-27181D02*
X58139Y-27181D01*
X57481Y-27377D02*
X57481Y-27505D01*
X57481Y-27505D02*
X57678Y-27505D01*
X57678Y-27377D02*
X57678Y-27505D01*
X57481Y-27377D02*
X57678Y-27377D01*
X57481Y-27013D02*
X57481Y-27141D01*
X57481Y-27141D02*
X57678Y-27141D01*
X57678Y-27013D02*
X57678Y-27141D01*
X57481Y-27013D02*
X57678Y-27013D01*
X57579Y-27327D02*
X57579Y-27386D01*
X57579Y-27386D02*
X57678Y-27386D01*
X57678Y-27327D02*
X57678Y-27386D01*
X57579Y-27327D02*
X57678Y-27327D01*
X57579Y-27132D02*
X57579Y-27191D01*
X57579Y-27191D02*
X57678Y-27191D01*
X57678Y-27132D02*
X57678Y-27191D01*
X57579Y-27132D02*
X57678Y-27132D01*
X57609Y-27181D02*
X57609Y-27337D01*
X57609Y-27337D02*
X57678Y-27337D01*
X57678Y-27181D02*
X57678Y-27337D01*
X57609Y-27181D02*
X57678Y-27181D01*
X57874Y-27220D02*
X57874Y-27298D01*
X57874Y-27298D02*
X57952Y-27298D01*
X57952Y-27220D02*
X57952Y-27298D01*
X57874Y-27220D02*
X57952Y-27220D01*
X58070Y-27023D02*
X58070Y-27141D01*
X58070Y-27141D02*
X58188Y-27141D01*
X58188Y-27023D02*
X58188Y-27141D01*
X58070Y-27023D02*
X58188Y-27023D01*
X58238Y-27013D02*
X58238Y-27102D01*
X58238Y-27102D02*
X58267Y-27102D01*
X58267Y-27013D02*
X58267Y-27102D01*
X58238Y-27013D02*
X58267Y-27013D01*
G54D15*
X58080Y-27485D02*
X57668Y-27485D01*
X57678Y-27033D02*
X58238Y-27033D01*
G54D16*
X58236Y-27082D02*
X58235Y-27087D01*
X58233Y-27092D01*
X58231Y-27097D01*
X58227Y-27101D01*
X58223Y-27105D01*
X58218Y-27107D01*
X58213Y-27109D01*
X58208Y-27109D01*
X58203Y-27109D01*
X58198Y-27107D01*
X58193Y-27105D01*
X58189Y-27102D01*
X58185Y-27097D01*
X58183Y-27093D01*
X58181Y-27087D01*
X58181Y-27082D01*
X58181Y-27077D01*
X58182Y-27072D01*
X58185Y-27067D01*
X58188Y-27063D01*
X58193Y-27060D01*
X58197Y-27057D01*
X58202Y-27055D01*
X58208Y-27055D01*
X58212Y-27055D01*
X58218Y-27056D01*
X58223Y-27059D01*
X58227Y-27062D01*
X58230Y-27066D01*
X58233Y-27071D01*
X58235Y-27076D01*
X58235Y-27082D01*
X58236Y-27082D01*
G54D15*
X58267Y-27122D02*
X58256Y-27123D01*
X58244Y-27125D01*
X58232Y-27127D01*
X58221Y-27131D01*
X58210Y-27135D01*
X58199Y-27141D01*
X58189Y-27147D01*
X58179Y-27155D01*
X58171Y-27163D01*
X58163Y-27171D01*
X58155Y-27181D01*
X58149Y-27191D01*
X58143Y-27202D01*
X58139Y-27213D01*
X58135Y-27224D01*
X58133Y-27236D01*
X58131Y-27248D01*
X58130Y-27259D01*
X58131Y-27270D01*
X58133Y-27282D01*
X58135Y-27294D01*
X58139Y-27305D01*
X58143Y-27316D01*
X58149Y-27327D01*
X58155Y-27337D01*
X58163Y-27347D01*
X58171Y-27355D01*
X58179Y-27363D01*
X58189Y-27371D01*
X58199Y-27377D01*
X58210Y-27383D01*
X58221Y-27387D01*
X58232Y-27391D01*
X58244Y-27393D01*
X58256Y-27395D01*
X58267Y-27396D01*
X57481Y-27396D02*
X57492Y-27395D01*
X57504Y-27393D01*
X57516Y-27391D01*
X57527Y-27387D01*
X57538Y-27383D01*
X57549Y-27377D01*
X57559Y-27371D01*
X57569Y-27363D01*
X57577Y-27355D01*
X57585Y-27347D01*
X57593Y-27337D01*
X57599Y-27327D01*
X57605Y-27316D01*
X57609Y-27305D01*
X57613Y-27294D01*
X57615Y-27282D01*
X57617Y-27270D01*
X57618Y-27259D01*
X57617Y-27248D01*
X57615Y-27236D01*
X57613Y-27224D01*
X57609Y-27213D01*
X57605Y-27202D01*
X57599Y-27191D01*
X57593Y-27181D01*
X57585Y-27171D01*
X57577Y-27163D01*
X57569Y-27155D01*
X57559Y-27147D01*
X57549Y-27141D01*
X57538Y-27135D01*
X57527Y-27131D01*
X57516Y-27127D01*
X57504Y-27125D01*
X57492Y-27123D01*
X57481Y-27122D01*
G54D14*
X58070Y-28952D02*
X58070Y-29080D01*
X58070Y-29080D02*
X58267Y-29080D01*
X58267Y-28952D02*
X58267Y-29080D01*
X58070Y-28952D02*
X58267Y-28952D01*
X58070Y-28707D02*
X58070Y-28766D01*
X58070Y-28766D02*
X58169Y-28766D01*
X58169Y-28707D02*
X58169Y-28766D01*
X58070Y-28707D02*
X58169Y-28707D01*
X58070Y-28902D02*
X58070Y-28961D01*
X58070Y-28961D02*
X58169Y-28961D01*
X58169Y-28902D02*
X58169Y-28961D01*
X58070Y-28902D02*
X58169Y-28902D01*
X58070Y-28756D02*
X58070Y-28912D01*
X58070Y-28912D02*
X58139Y-28912D01*
X58139Y-28756D02*
X58139Y-28912D01*
X58070Y-28756D02*
X58139Y-28756D01*
X57481Y-28952D02*
X57481Y-29080D01*
X57481Y-29080D02*
X57678Y-29080D01*
X57678Y-28952D02*
X57678Y-29080D01*
X57481Y-28952D02*
X57678Y-28952D01*
X57481Y-28588D02*
X57481Y-28716D01*
X57481Y-28716D02*
X57678Y-28716D01*
X57678Y-28588D02*
X57678Y-28716D01*
X57481Y-28588D02*
X57678Y-28588D01*
X57579Y-28902D02*
X57579Y-28961D01*
X57579Y-28961D02*
X57678Y-28961D01*
X57678Y-28902D02*
X57678Y-28961D01*
X57579Y-28902D02*
X57678Y-28902D01*
X57579Y-28707D02*
X57579Y-28766D01*
X57579Y-28766D02*
X57678Y-28766D01*
X57678Y-28707D02*
X57678Y-28766D01*
X57579Y-28707D02*
X57678Y-28707D01*
X57609Y-28756D02*
X57609Y-28912D01*
X57609Y-28912D02*
X57678Y-28912D01*
X57678Y-28756D02*
X57678Y-28912D01*
X57609Y-28756D02*
X57678Y-28756D01*
X57874Y-28795D02*
X57874Y-28873D01*
X57874Y-28873D02*
X57952Y-28873D01*
X57952Y-28795D02*
X57952Y-28873D01*
X57874Y-28795D02*
X57952Y-28795D01*
X58070Y-28598D02*
X58070Y-28716D01*
X58070Y-28716D02*
X58188Y-28716D01*
X58188Y-28598D02*
X58188Y-28716D01*
X58070Y-28598D02*
X58188Y-28598D01*
X58238Y-28588D02*
X58238Y-28677D01*
X58238Y-28677D02*
X58267Y-28677D01*
X58267Y-28588D02*
X58267Y-28677D01*
X58238Y-28588D02*
X58267Y-28588D01*
G54D15*
X58080Y-29060D02*
X57668Y-29060D01*
X57678Y-28608D02*
X58238Y-28608D01*
G54D16*
X58236Y-28657D02*
X58235Y-28662D01*
X58233Y-28667D01*
X58231Y-28672D01*
X58227Y-28676D01*
X58223Y-28680D01*
X58218Y-28682D01*
X58213Y-28684D01*
X58208Y-28684D01*
X58203Y-28684D01*
X58198Y-28682D01*
X58193Y-28680D01*
X58189Y-28677D01*
X58185Y-28672D01*
X58183Y-28668D01*
X58181Y-28662D01*
X58181Y-28657D01*
X58181Y-28652D01*
X58182Y-28647D01*
X58185Y-28642D01*
X58188Y-28638D01*
X58193Y-28635D01*
X58197Y-28632D01*
X58202Y-28630D01*
X58208Y-28630D01*
X58212Y-28630D01*
X58218Y-28631D01*
X58223Y-28634D01*
X58227Y-28637D01*
X58230Y-28641D01*
X58233Y-28646D01*
X58235Y-28651D01*
X58235Y-28657D01*
X58236Y-28657D01*
G54D15*
X58267Y-28697D02*
X58256Y-28698D01*
X58244Y-28700D01*
X58232Y-28702D01*
X58221Y-28706D01*
X58210Y-28710D01*
X58199Y-28716D01*
X58189Y-28722D01*
X58179Y-28730D01*
X58171Y-28738D01*
X58163Y-28746D01*
X58155Y-28756D01*
X58149Y-28766D01*
X58143Y-28777D01*
X58139Y-28788D01*
X58135Y-28799D01*
X58133Y-28811D01*
X58131Y-28823D01*
X58130Y-28834D01*
X58131Y-28845D01*
X58133Y-28857D01*
X58135Y-28869D01*
X58139Y-28880D01*
X58143Y-28891D01*
X58149Y-28902D01*
X58155Y-28912D01*
X58163Y-28922D01*
X58171Y-28930D01*
X58179Y-28938D01*
X58189Y-28946D01*
X58199Y-28952D01*
X58210Y-28958D01*
X58221Y-28962D01*
X58232Y-28966D01*
X58244Y-28968D01*
X58256Y-28970D01*
X58267Y-28971D01*
X57481Y-28971D02*
X57492Y-28970D01*
X57504Y-28968D01*
X57516Y-28966D01*
X57527Y-28962D01*
X57538Y-28958D01*
X57549Y-28952D01*
X57559Y-28946D01*
X57569Y-28938D01*
X57577Y-28930D01*
X57585Y-28922D01*
X57593Y-28912D01*
X57599Y-28902D01*
X57605Y-28891D01*
X57609Y-28880D01*
X57613Y-28869D01*
X57615Y-28857D01*
X57617Y-28845D01*
X57618Y-28834D01*
X57617Y-28823D01*
X57615Y-28811D01*
X57613Y-28799D01*
X57609Y-28788D01*
X57605Y-28777D01*
X57599Y-28766D01*
X57593Y-28756D01*
X57585Y-28746D01*
X57577Y-28738D01*
X57569Y-28730D01*
X57559Y-28722D01*
X57549Y-28716D01*
X57538Y-28710D01*
X57527Y-28706D01*
X57516Y-28702D01*
X57504Y-28700D01*
X57492Y-28698D01*
X57481Y-28697D01*
G54D14*
X58070Y-30827D02*
X58070Y-30955D01*
X58070Y-30955D02*
X58267Y-30955D01*
X58267Y-30827D02*
X58267Y-30955D01*
X58070Y-30827D02*
X58267Y-30827D01*
X58070Y-30582D02*
X58070Y-30641D01*
X58070Y-30641D02*
X58169Y-30641D01*
X58169Y-30582D02*
X58169Y-30641D01*
X58070Y-30582D02*
X58169Y-30582D01*
X58070Y-30777D02*
X58070Y-30836D01*
X58070Y-30836D02*
X58169Y-30836D01*
X58169Y-30777D02*
X58169Y-30836D01*
X58070Y-30777D02*
X58169Y-30777D01*
X58070Y-30631D02*
X58070Y-30787D01*
X58070Y-30787D02*
X58139Y-30787D01*
X58139Y-30631D02*
X58139Y-30787D01*
X58070Y-30631D02*
X58139Y-30631D01*
X57481Y-30827D02*
X57481Y-30955D01*
X57481Y-30955D02*
X57678Y-30955D01*
X57678Y-30827D02*
X57678Y-30955D01*
X57481Y-30827D02*
X57678Y-30827D01*
X57481Y-30463D02*
X57481Y-30591D01*
X57481Y-30591D02*
X57678Y-30591D01*
X57678Y-30463D02*
X57678Y-30591D01*
X57481Y-30463D02*
X57678Y-30463D01*
X57579Y-30777D02*
X57579Y-30836D01*
X57579Y-30836D02*
X57678Y-30836D01*
X57678Y-30777D02*
X57678Y-30836D01*
X57579Y-30777D02*
X57678Y-30777D01*
X57579Y-30582D02*
X57579Y-30641D01*
X57579Y-30641D02*
X57678Y-30641D01*
X57678Y-30582D02*
X57678Y-30641D01*
X57579Y-30582D02*
X57678Y-30582D01*
X57609Y-30631D02*
X57609Y-30787D01*
X57609Y-30787D02*
X57678Y-30787D01*
X57678Y-30631D02*
X57678Y-30787D01*
X57609Y-30631D02*
X57678Y-30631D01*
X57874Y-30670D02*
X57874Y-30748D01*
X57874Y-30748D02*
X57952Y-30748D01*
X57952Y-30670D02*
X57952Y-30748D01*
X57874Y-30670D02*
X57952Y-30670D01*
X58070Y-30473D02*
X58070Y-30591D01*
X58070Y-30591D02*
X58188Y-30591D01*
X58188Y-30473D02*
X58188Y-30591D01*
X58070Y-30473D02*
X58188Y-30473D01*
X58238Y-30463D02*
X58238Y-30552D01*
X58238Y-30552D02*
X58267Y-30552D01*
X58267Y-30463D02*
X58267Y-30552D01*
X58238Y-30463D02*
X58267Y-30463D01*
G54D15*
X58080Y-30935D02*
X57668Y-30935D01*
X57678Y-30483D02*
X58238Y-30483D01*
G54D16*
X58236Y-30532D02*
X58235Y-30537D01*
X58233Y-30542D01*
X58231Y-30547D01*
X58227Y-30551D01*
X58223Y-30555D01*
X58218Y-30557D01*
X58213Y-30559D01*
X58208Y-30559D01*
X58203Y-30559D01*
X58198Y-30557D01*
X58193Y-30555D01*
X58189Y-30552D01*
X58185Y-30547D01*
X58183Y-30543D01*
X58181Y-30537D01*
X58181Y-30532D01*
X58181Y-30527D01*
X58182Y-30522D01*
X58185Y-30517D01*
X58188Y-30513D01*
X58193Y-30510D01*
X58197Y-30507D01*
X58202Y-30505D01*
X58208Y-30505D01*
X58212Y-30505D01*
X58218Y-30506D01*
X58223Y-30509D01*
X58227Y-30512D01*
X58230Y-30516D01*
X58233Y-30521D01*
X58235Y-30526D01*
X58235Y-30532D01*
X58236Y-30532D01*
G54D15*
X58267Y-30572D02*
X58256Y-30573D01*
X58244Y-30575D01*
X58232Y-30577D01*
X58221Y-30581D01*
X58210Y-30585D01*
X58199Y-30591D01*
X58189Y-30597D01*
X58179Y-30605D01*
X58171Y-30613D01*
X58163Y-30621D01*
X58155Y-30631D01*
X58149Y-30641D01*
X58143Y-30652D01*
X58139Y-30663D01*
X58135Y-30674D01*
X58133Y-30686D01*
X58131Y-30698D01*
X58130Y-30709D01*
X58131Y-30720D01*
X58133Y-30732D01*
X58135Y-30744D01*
X58139Y-30755D01*
X58143Y-30766D01*
X58149Y-30777D01*
X58155Y-30787D01*
X58163Y-30797D01*
X58171Y-30805D01*
X58179Y-30813D01*
X58189Y-30821D01*
X58199Y-30827D01*
X58210Y-30833D01*
X58221Y-30837D01*
X58232Y-30841D01*
X58244Y-30843D01*
X58256Y-30845D01*
X58267Y-30846D01*
X57481Y-30846D02*
X57492Y-30845D01*
X57504Y-30843D01*
X57516Y-30841D01*
X57527Y-30837D01*
X57538Y-30833D01*
X57549Y-30827D01*
X57559Y-30821D01*
X57569Y-30813D01*
X57577Y-30805D01*
X57585Y-30797D01*
X57593Y-30787D01*
X57599Y-30777D01*
X57605Y-30766D01*
X57609Y-30755D01*
X57613Y-30744D01*
X57615Y-30732D01*
X57617Y-30720D01*
X57618Y-30709D01*
X57617Y-30698D01*
X57615Y-30686D01*
X57613Y-30674D01*
X57609Y-30663D01*
X57605Y-30652D01*
X57599Y-30641D01*
X57593Y-30631D01*
X57585Y-30621D01*
X57577Y-30613D01*
X57569Y-30605D01*
X57559Y-30597D01*
X57549Y-30591D01*
X57538Y-30585D01*
X57527Y-30581D01*
X57516Y-30577D01*
X57504Y-30575D01*
X57492Y-30573D01*
X57481Y-30572D01*
G54D14*
X58070Y-32401D02*
X58070Y-32529D01*
X58070Y-32529D02*
X58267Y-32529D01*
X58267Y-32401D02*
X58267Y-32529D01*
X58070Y-32401D02*
X58267Y-32401D01*
X58070Y-32156D02*
X58070Y-32215D01*
X58070Y-32215D02*
X58169Y-32215D01*
X58169Y-32156D02*
X58169Y-32215D01*
X58070Y-32156D02*
X58169Y-32156D01*
X58070Y-32351D02*
X58070Y-32410D01*
X58070Y-32410D02*
X58169Y-32410D01*
X58169Y-32351D02*
X58169Y-32410D01*
X58070Y-32351D02*
X58169Y-32351D01*
X58070Y-32205D02*
X58070Y-32361D01*
X58070Y-32361D02*
X58139Y-32361D01*
X58139Y-32205D02*
X58139Y-32361D01*
X58070Y-32205D02*
X58139Y-32205D01*
X57481Y-32401D02*
X57481Y-32529D01*
X57481Y-32529D02*
X57678Y-32529D01*
X57678Y-32401D02*
X57678Y-32529D01*
X57481Y-32401D02*
X57678Y-32401D01*
X57481Y-32037D02*
X57481Y-32165D01*
X57481Y-32165D02*
X57678Y-32165D01*
X57678Y-32037D02*
X57678Y-32165D01*
X57481Y-32037D02*
X57678Y-32037D01*
X57579Y-32351D02*
X57579Y-32410D01*
X57579Y-32410D02*
X57678Y-32410D01*
X57678Y-32351D02*
X57678Y-32410D01*
X57579Y-32351D02*
X57678Y-32351D01*
X57579Y-32156D02*
X57579Y-32215D01*
X57579Y-32215D02*
X57678Y-32215D01*
X57678Y-32156D02*
X57678Y-32215D01*
X57579Y-32156D02*
X57678Y-32156D01*
X57609Y-32205D02*
X57609Y-32361D01*
X57609Y-32361D02*
X57678Y-32361D01*
X57678Y-32205D02*
X57678Y-32361D01*
X57609Y-32205D02*
X57678Y-32205D01*
X57874Y-32244D02*
X57874Y-32322D01*
X57874Y-32322D02*
X57952Y-32322D01*
X57952Y-32244D02*
X57952Y-32322D01*
X57874Y-32244D02*
X57952Y-32244D01*
X58070Y-32047D02*
X58070Y-32165D01*
X58070Y-32165D02*
X58188Y-32165D01*
X58188Y-32047D02*
X58188Y-32165D01*
X58070Y-32047D02*
X58188Y-32047D01*
X58238Y-32037D02*
X58238Y-32126D01*
X58238Y-32126D02*
X58267Y-32126D01*
X58267Y-32037D02*
X58267Y-32126D01*
X58238Y-32037D02*
X58267Y-32037D01*
G54D15*
X58080Y-32509D02*
X57668Y-32509D01*
X57678Y-32057D02*
X58238Y-32057D01*
G54D16*
X58236Y-32106D02*
X58235Y-32111D01*
X58233Y-32116D01*
X58231Y-32121D01*
X58227Y-32125D01*
X58223Y-32129D01*
X58218Y-32131D01*
X58213Y-32133D01*
X58208Y-32133D01*
X58203Y-32133D01*
X58198Y-32131D01*
X58193Y-32129D01*
X58189Y-32126D01*
X58185Y-32121D01*
X58183Y-32117D01*
X58181Y-32111D01*
X58181Y-32106D01*
X58181Y-32101D01*
X58182Y-32096D01*
X58185Y-32091D01*
X58188Y-32087D01*
X58193Y-32084D01*
X58197Y-32081D01*
X58202Y-32079D01*
X58208Y-32079D01*
X58212Y-32079D01*
X58218Y-32080D01*
X58223Y-32083D01*
X58227Y-32086D01*
X58230Y-32090D01*
X58233Y-32095D01*
X58235Y-32100D01*
X58235Y-32106D01*
X58236Y-32106D01*
G54D15*
X58267Y-32146D02*
X58256Y-32147D01*
X58244Y-32149D01*
X58232Y-32151D01*
X58221Y-32155D01*
X58210Y-32159D01*
X58199Y-32165D01*
X58189Y-32171D01*
X58179Y-32179D01*
X58171Y-32187D01*
X58163Y-32195D01*
X58155Y-32205D01*
X58149Y-32215D01*
X58143Y-32226D01*
X58139Y-32237D01*
X58135Y-32248D01*
X58133Y-32260D01*
X58131Y-32272D01*
X58130Y-32283D01*
X58131Y-32294D01*
X58133Y-32306D01*
X58135Y-32318D01*
X58139Y-32329D01*
X58143Y-32340D01*
X58149Y-32351D01*
X58155Y-32361D01*
X58163Y-32371D01*
X58171Y-32379D01*
X58179Y-32387D01*
X58189Y-32395D01*
X58199Y-32401D01*
X58210Y-32407D01*
X58221Y-32411D01*
X58232Y-32415D01*
X58244Y-32417D01*
X58256Y-32419D01*
X58267Y-32420D01*
X57481Y-32420D02*
X57492Y-32419D01*
X57504Y-32417D01*
X57516Y-32415D01*
X57527Y-32411D01*
X57538Y-32407D01*
X57549Y-32401D01*
X57559Y-32395D01*
X57569Y-32387D01*
X57577Y-32379D01*
X57585Y-32371D01*
X57593Y-32361D01*
X57599Y-32351D01*
X57605Y-32340D01*
X57609Y-32329D01*
X57613Y-32318D01*
X57615Y-32306D01*
X57617Y-32294D01*
X57618Y-32283D01*
X57617Y-32272D01*
X57615Y-32260D01*
X57613Y-32248D01*
X57609Y-32237D01*
X57605Y-32226D01*
X57599Y-32215D01*
X57593Y-32205D01*
X57585Y-32195D01*
X57577Y-32187D01*
X57569Y-32179D01*
X57559Y-32171D01*
X57549Y-32165D01*
X57538Y-32159D01*
X57527Y-32155D01*
X57516Y-32151D01*
X57504Y-32149D01*
X57492Y-32147D01*
X57481Y-32146D01*
G54D17*
X45994Y-32299D02*
X48494Y-32299D01*
X45994Y-30299D02*
X48494Y-30299D01*
X49494Y-31299D02*
X49490Y-31212D01*
X49478Y-31126D01*
X49459Y-31041D01*
X49433Y-30957D01*
X49400Y-30877D01*
X49360Y-30800D01*
X49313Y-30726D01*
X49260Y-30657D01*
X49201Y-30592D01*
X49136Y-30533D01*
X49067Y-30480D01*
X48994Y-30433D01*
X48916Y-30393D01*
X48836Y-30360D01*
X48752Y-30334D01*
X48667Y-30315D01*
X48581Y-30303D01*
X48494Y-30299D01*
X48494Y-32299D02*
X48581Y-32295D01*
X48667Y-32283D01*
X48752Y-32264D01*
X48836Y-32238D01*
X48916Y-32205D01*
X48994Y-32165D01*
X49067Y-32118D01*
X49136Y-32065D01*
X49201Y-32006D01*
X49260Y-31941D01*
X49313Y-31872D01*
X49360Y-31798D01*
X49400Y-31721D01*
X49433Y-31641D01*
X49459Y-31557D01*
X49478Y-31472D01*
X49490Y-31386D01*
X49494Y-31299D01*
X45994Y-30299D02*
X45907Y-30303D01*
X45821Y-30315D01*
X45736Y-30334D01*
X45652Y-30360D01*
X45572Y-30393D01*
X45495Y-30433D01*
X45421Y-30480D01*
X45352Y-30533D01*
X45287Y-30592D01*
X45228Y-30657D01*
X45175Y-30726D01*
X45128Y-30800D01*
X45088Y-30877D01*
X45055Y-30957D01*
X45029Y-31041D01*
X45010Y-31126D01*
X44998Y-31212D01*
X44994Y-31299D01*
X44994Y-31299D02*
X44998Y-31386D01*
X45010Y-31472D01*
X45029Y-31557D01*
X45055Y-31641D01*
X45088Y-31721D01*
X45128Y-31798D01*
X45175Y-31872D01*
X45228Y-31941D01*
X45287Y-32006D01*
X45352Y-32065D01*
X45421Y-32118D01*
X45495Y-32165D01*
X45572Y-32205D01*
X45652Y-32238D01*
X45736Y-32264D01*
X45821Y-32283D01*
X45907Y-32295D01*
X45994Y-32299D01*
G54D11*
X48787Y-26575D02*
X49187Y-26575D01*
X49187Y-26575D02*
X49187Y-26175D01*
X49187Y-26175D02*
X52387Y-26175D01*
X52387Y-26175D02*
X52387Y-26975D01*
X52387Y-26975D02*
X49187Y-26975D01*
X49187Y-26975D02*
X49187Y-26575D01*
X49187Y-26375D02*
X49387Y-26175D01*
X52787Y-26575D02*
X52387Y-26575D01*
G54D12*
X50700Y-28650D02*
X50699Y-28659D01*
X50696Y-28669D01*
X50691Y-28677D01*
X50685Y-28685D01*
X50677Y-28691D01*
X50669Y-28696D01*
X50660Y-28698D01*
X50650Y-28699D01*
X50641Y-28699D01*
X50632Y-28696D01*
X50623Y-28691D01*
X50616Y-28685D01*
X50609Y-28678D01*
X50605Y-28669D01*
X50602Y-28660D01*
X50601Y-28650D01*
X50601Y-28641D01*
X50604Y-28632D01*
X50608Y-28623D01*
X50615Y-28616D01*
X50622Y-28609D01*
X50630Y-28605D01*
X50640Y-28602D01*
X50649Y-28601D01*
X50658Y-28601D01*
X50668Y-28604D01*
X50676Y-28608D01*
X50684Y-28614D01*
X50690Y-28622D01*
X50695Y-28630D01*
X50698Y-28639D01*
X50699Y-28649D01*
X50700Y-28650D01*
X50650Y-29100D02*
X50650Y-28700D01*
X50650Y-28700D02*
X51250Y-28700D01*
X51250Y-28700D02*
X51250Y-29100D01*
X51250Y-29500D02*
X51250Y-29900D01*
X51250Y-29900D02*
X50650Y-29900D01*
X50650Y-29900D02*
X50650Y-29500D01*
X41716Y-30300D02*
X41709Y-30361D01*
X41692Y-30420D01*
X41663Y-30474D01*
X41624Y-30522D01*
X41576Y-30561D01*
X41522Y-30591D01*
X41463Y-30609D01*
X41402Y-30615D01*
X41341Y-30610D01*
X41282Y-30592D01*
X41227Y-30564D01*
X41179Y-30525D01*
X41140Y-30478D01*
X41110Y-30424D01*
X41091Y-30365D01*
X41085Y-30304D01*
X41090Y-30243D01*
X41107Y-30184D01*
X41135Y-30129D01*
X41173Y-30081D01*
X41220Y-30041D01*
X41274Y-30011D01*
X41333Y-29992D01*
X41394Y-29985D01*
X41454Y-29989D01*
X41514Y-30006D01*
X41569Y-30034D01*
X41617Y-30072D01*
X41658Y-30118D01*
X41688Y-30172D01*
X41708Y-30230D01*
X41715Y-30292D01*
X41716Y-30300D01*
X41716Y-32100D02*
X41709Y-32161D01*
X41692Y-32220D01*
X41663Y-32274D01*
X41624Y-32322D01*
X41576Y-32361D01*
X41522Y-32391D01*
X41463Y-32409D01*
X41402Y-32415D01*
X41341Y-32410D01*
X41282Y-32392D01*
X41227Y-32364D01*
X41179Y-32325D01*
X41140Y-32278D01*
X41110Y-32224D01*
X41091Y-32165D01*
X41085Y-32104D01*
X41090Y-32043D01*
X41107Y-31984D01*
X41135Y-31929D01*
X41173Y-31881D01*
X41220Y-31841D01*
X41274Y-31811D01*
X41333Y-31792D01*
X41394Y-31785D01*
X41454Y-31789D01*
X41514Y-31806D01*
X41569Y-31834D01*
X41617Y-31872D01*
X41658Y-31918D01*
X41688Y-31972D01*
X41708Y-32030D01*
X41715Y-32092D01*
X41716Y-32100D01*
G54D11*
X42958Y-33643D02*
X42958Y-33043D01*
X43186Y-33043D01*
X43244Y-33071D01*
X43272Y-33100D01*
X43301Y-33157D01*
X43301Y-33243D01*
X43272Y-33300D01*
X43244Y-33329D01*
X43186Y-33357D01*
X42958Y-33357D01*
X43872Y-33643D02*
X43529Y-33643D01*
X43701Y-33643D02*
X43701Y-33043D01*
X43644Y-33129D01*
X43586Y-33186D01*
X43529Y-33214D01*
X35214Y-32286D02*
X35185Y-32314D01*
X35099Y-32343D01*
X35042Y-32343D01*
X34957Y-32314D01*
X34899Y-32257D01*
X34871Y-32200D01*
X34842Y-32086D01*
X34842Y-32000D01*
X34871Y-31886D01*
X34899Y-31829D01*
X34957Y-31771D01*
X35042Y-31743D01*
X35099Y-31743D01*
X35185Y-31771D01*
X35214Y-31800D01*
X35585Y-31743D02*
X35699Y-31743D01*
X35757Y-31771D01*
X35814Y-31829D01*
X35842Y-31943D01*
X35842Y-32143D01*
X35814Y-32257D01*
X35757Y-32314D01*
X35699Y-32343D01*
X35585Y-32343D01*
X35528Y-32314D01*
X35471Y-32257D01*
X35442Y-32143D01*
X35442Y-31943D01*
X35471Y-31829D01*
X35528Y-31771D01*
X35585Y-31743D01*
X36100Y-32343D02*
X36100Y-31743D01*
X36443Y-32343D01*
X36443Y-31743D01*
X36729Y-32343D02*
X36729Y-31743D01*
X37072Y-32343D01*
X37072Y-31743D01*
X37215Y-32400D02*
X37672Y-32400D01*
X37815Y-31743D02*
X37815Y-32229D01*
X37843Y-32286D01*
X37872Y-32314D01*
X37929Y-32343D01*
X38043Y-32343D01*
X38101Y-32314D01*
X38129Y-32286D01*
X38158Y-32229D01*
X38158Y-31743D01*
X38415Y-32314D02*
X38501Y-32343D01*
X38644Y-32343D01*
X38701Y-32314D01*
X38730Y-32286D01*
X38758Y-32229D01*
X38758Y-32171D01*
X38730Y-32114D01*
X38701Y-32086D01*
X38644Y-32057D01*
X38530Y-32029D01*
X38472Y-32000D01*
X38444Y-31971D01*
X38415Y-31914D01*
X38415Y-31857D01*
X38444Y-31800D01*
X38472Y-31771D01*
X38530Y-31743D01*
X38672Y-31743D01*
X38758Y-31771D01*
X39215Y-32029D02*
X39301Y-32057D01*
X39329Y-32086D01*
X39358Y-32143D01*
X39358Y-32229D01*
X39329Y-32286D01*
X39301Y-32314D01*
X39243Y-32343D01*
X39015Y-32343D01*
X39015Y-31743D01*
X39215Y-31743D01*
X39272Y-31771D01*
X39301Y-31800D01*
X39329Y-31857D01*
X39329Y-31914D01*
X39301Y-31971D01*
X39272Y-32000D01*
X39215Y-32029D01*
X39015Y-32029D01*
G54D13*
X53350Y-29230D02*
X53350Y-28730D01*
X53769Y-29183D02*
X53750Y-29207D01*
X53693Y-29230D01*
X53655Y-29230D01*
X53597Y-29207D01*
X53559Y-29159D01*
X53540Y-29111D01*
X53521Y-29016D01*
X53521Y-28945D01*
X53540Y-28849D01*
X53559Y-28802D01*
X53597Y-28754D01*
X53655Y-28730D01*
X53693Y-28730D01*
X53750Y-28754D01*
X53769Y-28778D01*
X54150Y-29230D02*
X53921Y-29230D01*
X54035Y-29230D02*
X54035Y-28730D01*
X53997Y-28802D01*
X53959Y-28849D01*
X53921Y-28873D01*
X52367Y-32460D02*
X52558Y-32460D01*
X52329Y-32602D02*
X52462Y-32102D01*
X52596Y-32602D01*
X52672Y-32102D02*
X52901Y-32102D01*
X52786Y-32602D02*
X52786Y-32102D01*
X53034Y-32602D02*
X53034Y-32102D01*
X53168Y-32460D01*
X53301Y-32102D01*
X53301Y-32602D01*
X53491Y-32340D02*
X53625Y-32340D01*
X53682Y-32602D02*
X53491Y-32602D01*
X53491Y-32102D01*
X53682Y-32102D01*
X54063Y-32126D02*
X54025Y-32102D01*
X53968Y-32102D01*
X53910Y-32126D01*
X53872Y-32174D01*
X53853Y-32221D01*
X53834Y-32317D01*
X53834Y-32388D01*
X53853Y-32483D01*
X53872Y-32531D01*
X53910Y-32579D01*
X53968Y-32602D01*
X54006Y-32602D01*
X54063Y-32579D01*
X54082Y-32555D01*
X54082Y-32388D01*
X54006Y-32388D01*
X54234Y-32460D02*
X54425Y-32460D01*
X54196Y-32602D02*
X54329Y-32102D01*
X54463Y-32602D01*
X54653Y-32317D02*
X54615Y-32293D01*
X54596Y-32269D01*
X54577Y-32221D01*
X54577Y-32198D01*
X54596Y-32150D01*
X54615Y-32126D01*
X54653Y-32102D01*
X54730Y-32102D01*
X54768Y-32126D01*
X54787Y-32150D01*
X54806Y-32198D01*
X54806Y-32221D01*
X54787Y-32269D01*
X54768Y-32293D01*
X54730Y-32317D01*
X54653Y-32317D01*
X54615Y-32340D01*
X54596Y-32364D01*
X54577Y-32412D01*
X54577Y-32507D01*
X54596Y-32555D01*
X54615Y-32579D01*
X54653Y-32602D01*
X54730Y-32602D01*
X54768Y-32579D01*
X54787Y-32555D01*
X54806Y-32507D01*
X54806Y-32412D01*
X54787Y-32364D01*
X54768Y-32340D01*
X54730Y-32317D01*
X54977Y-32412D02*
X55282Y-32412D01*
X55453Y-32460D02*
X55644Y-32460D01*
X55415Y-32602D02*
X55548Y-32102D01*
X55682Y-32602D01*
X55815Y-32602D02*
X55815Y-32102D01*
X50482Y-32336D02*
X50482Y-32660D01*
X50501Y-32698D01*
X50520Y-32717D01*
X50558Y-32736D01*
X50635Y-32736D01*
X50673Y-32717D01*
X50692Y-32698D01*
X50711Y-32660D01*
X50711Y-32336D01*
X51111Y-32736D02*
X50882Y-32736D01*
X50996Y-32736D02*
X50996Y-32336D01*
X50958Y-32393D01*
X50920Y-32431D01*
X50882Y-32450D01*
X49511Y-33222D02*
X49702Y-33222D01*
X49473Y-33336D02*
X49606Y-32936D01*
X49740Y-33336D01*
X49873Y-33336D02*
X49873Y-32936D01*
X50007Y-33222D01*
X50140Y-32936D01*
X50140Y-33336D01*
X50311Y-33317D02*
X50368Y-33336D01*
X50464Y-33336D01*
X50502Y-33317D01*
X50521Y-33298D01*
X50540Y-33260D01*
X50540Y-33222D01*
X50521Y-33184D01*
X50502Y-33164D01*
X50464Y-33145D01*
X50387Y-33126D01*
X50349Y-33107D01*
X50330Y-33088D01*
X50311Y-33050D01*
X50311Y-33012D01*
X50330Y-32974D01*
X50349Y-32955D01*
X50387Y-32936D01*
X50483Y-32936D01*
X50540Y-32955D01*
X50921Y-33336D02*
X50692Y-33336D01*
X50806Y-33336D02*
X50806Y-32936D01*
X50768Y-32993D01*
X50730Y-33031D01*
X50692Y-33050D01*
X51302Y-33336D02*
X51073Y-33336D01*
X51187Y-33336D02*
X51187Y-32936D01*
X51149Y-32993D01*
X51111Y-33031D01*
X51073Y-33050D01*
X51683Y-33336D02*
X51454Y-33336D01*
X51568Y-33336D02*
X51568Y-32936D01*
X51530Y-32993D01*
X51492Y-33031D01*
X51454Y-33050D01*
X51816Y-32936D02*
X52083Y-32936D01*
X51911Y-33336D01*
G54D12*
X45421Y-28851D02*
X45121Y-28851D01*
X45121Y-28779D01*
X45136Y-28736D01*
X45164Y-28708D01*
X45193Y-28693D01*
X45250Y-28679D01*
X45293Y-28679D01*
X45350Y-28693D01*
X45379Y-28708D01*
X45407Y-28736D01*
X45421Y-28779D01*
X45421Y-28851D01*
X45421Y-28393D02*
X45421Y-28565D01*
X45421Y-28479D02*
X45121Y-28479D01*
X45164Y-28508D01*
X45193Y-28536D01*
X45207Y-28565D01*
X45121Y-28122D02*
X45121Y-28265D01*
X45264Y-28279D01*
X45250Y-28265D01*
X45236Y-28236D01*
X45236Y-28165D01*
X45250Y-28136D01*
X45264Y-28122D01*
X45293Y-28107D01*
X45364Y-28107D01*
X45393Y-28122D01*
X45407Y-28136D01*
X45421Y-28165D01*
X45421Y-28236D01*
X45407Y-28265D01*
X45393Y-28279D01*
X45121Y-27921D02*
X45121Y-27893D01*
X45136Y-27864D01*
X45150Y-27850D01*
X45179Y-27836D01*
X45236Y-27821D01*
X45307Y-27821D01*
X45364Y-27836D01*
X45393Y-27850D01*
X45407Y-27864D01*
X45421Y-27893D01*
X45421Y-27921D01*
X45407Y-27950D01*
X45393Y-27964D01*
X45364Y-27979D01*
X45307Y-27993D01*
X45236Y-27993D01*
X45179Y-27979D01*
X45150Y-27964D01*
X45136Y-27950D01*
X45121Y-27921D01*
X45421Y-27535D02*
X45421Y-27707D01*
X45421Y-27621D02*
X45121Y-27621D01*
X45164Y-27650D01*
X45193Y-27678D01*
X45207Y-27707D01*
X43321Y-28557D02*
X43321Y-28371D01*
X43436Y-28471D01*
X43436Y-28429D01*
X43450Y-28400D01*
X43464Y-28386D01*
X43493Y-28371D01*
X43564Y-28371D01*
X43593Y-28386D01*
X43607Y-28400D01*
X43621Y-28429D01*
X43621Y-28514D01*
X43607Y-28543D01*
X43593Y-28557D01*
X43421Y-28271D02*
X43621Y-28200D01*
X43421Y-28128D01*
X43321Y-27885D02*
X43321Y-27942D01*
X43336Y-27971D01*
X43350Y-27985D01*
X43393Y-28014D01*
X43450Y-28028D01*
X43564Y-28028D01*
X43593Y-28014D01*
X43607Y-27999D01*
X43621Y-27971D01*
X43621Y-27914D01*
X43607Y-27885D01*
X43593Y-27871D01*
X43564Y-27856D01*
X43493Y-27856D01*
X43464Y-27871D01*
X43450Y-27885D01*
X43436Y-27914D01*
X43436Y-27971D01*
X43450Y-27999D01*
X43464Y-28014D01*
X43493Y-28028D01*
X45321Y-30451D02*
X45021Y-30451D01*
X45021Y-30379D01*
X45036Y-30336D01*
X45064Y-30308D01*
X45093Y-30293D01*
X45150Y-30279D01*
X45193Y-30279D01*
X45250Y-30293D01*
X45279Y-30308D01*
X45307Y-30336D01*
X45321Y-30379D01*
X45321Y-30451D01*
X45321Y-29993D02*
X45321Y-30165D01*
X45321Y-30079D02*
X45021Y-30079D01*
X45064Y-30108D01*
X45093Y-30136D01*
X45107Y-30165D01*
X45021Y-29722D02*
X45021Y-29865D01*
X45164Y-29879D01*
X45150Y-29865D01*
X45136Y-29836D01*
X45136Y-29765D01*
X45150Y-29736D01*
X45164Y-29722D01*
X45193Y-29707D01*
X45264Y-29707D01*
X45293Y-29722D01*
X45307Y-29736D01*
X45321Y-29765D01*
X45321Y-29836D01*
X45307Y-29865D01*
X45293Y-29879D01*
X45021Y-29521D02*
X45021Y-29493D01*
X45036Y-29464D01*
X45050Y-29450D01*
X45079Y-29436D01*
X45136Y-29421D01*
X45207Y-29421D01*
X45264Y-29436D01*
X45293Y-29450D01*
X45307Y-29464D01*
X45321Y-29493D01*
X45321Y-29521D01*
X45307Y-29550D01*
X45293Y-29564D01*
X45264Y-29579D01*
X45207Y-29593D01*
X45136Y-29593D01*
X45079Y-29579D01*
X45050Y-29564D01*
X45036Y-29550D01*
X45021Y-29521D01*
X45050Y-29307D02*
X45036Y-29293D01*
X45021Y-29264D01*
X45021Y-29193D01*
X45036Y-29164D01*
X45050Y-29150D01*
X45079Y-29135D01*
X45107Y-29135D01*
X45150Y-29150D01*
X45321Y-29321D01*
X45321Y-29135D01*
X43321Y-30657D02*
X43321Y-30471D01*
X43436Y-30571D01*
X43436Y-30529D01*
X43450Y-30500D01*
X43464Y-30486D01*
X43493Y-30471D01*
X43564Y-30471D01*
X43593Y-30486D01*
X43607Y-30500D01*
X43621Y-30529D01*
X43621Y-30614D01*
X43607Y-30643D01*
X43593Y-30657D01*
X43421Y-30371D02*
X43621Y-30300D01*
X43421Y-30228D01*
X43321Y-29985D02*
X43321Y-30042D01*
X43336Y-30071D01*
X43350Y-30085D01*
X43393Y-30114D01*
X43450Y-30128D01*
X43564Y-30128D01*
X43593Y-30114D01*
X43607Y-30099D01*
X43621Y-30071D01*
X43621Y-30014D01*
X43607Y-29985D01*
X43593Y-29971D01*
X43564Y-29956D01*
X43493Y-29956D01*
X43464Y-29971D01*
X43450Y-29985D01*
X43436Y-30014D01*
X43436Y-30071D01*
X43450Y-30099D01*
X43464Y-30114D01*
X43493Y-30128D01*
X56758Y-26601D02*
X56675Y-26482D01*
X56616Y-26601D02*
X56616Y-26351D01*
X56711Y-26351D01*
X56735Y-26363D01*
X56746Y-26375D01*
X56758Y-26399D01*
X56758Y-26435D01*
X56746Y-26458D01*
X56735Y-26470D01*
X56711Y-26482D01*
X56616Y-26482D01*
X56985Y-26351D02*
X56866Y-26351D01*
X56854Y-26470D01*
X56866Y-26458D01*
X56889Y-26446D01*
X56949Y-26446D01*
X56973Y-26458D01*
X56985Y-26470D01*
X56996Y-26494D01*
X56996Y-26554D01*
X56985Y-26577D01*
X56973Y-26589D01*
X56949Y-26601D01*
X56889Y-26601D01*
X56866Y-26589D01*
X56854Y-26577D01*
X57058Y-28101D02*
X56975Y-27982D01*
X56916Y-28101D02*
X56916Y-27851D01*
X57011Y-27851D01*
X57035Y-27863D01*
X57046Y-27875D01*
X57058Y-27899D01*
X57058Y-27935D01*
X57046Y-27958D01*
X57035Y-27970D01*
X57011Y-27982D01*
X56916Y-27982D01*
X57273Y-27935D02*
X57273Y-28101D01*
X57213Y-27839D02*
X57154Y-28018D01*
X57308Y-28018D01*
X56858Y-30001D02*
X56775Y-29882D01*
X56716Y-30001D02*
X56716Y-29751D01*
X56811Y-29751D01*
X56835Y-29763D01*
X56846Y-29775D01*
X56858Y-29799D01*
X56858Y-29835D01*
X56846Y-29858D01*
X56835Y-29870D01*
X56811Y-29882D01*
X56716Y-29882D01*
X56942Y-29751D02*
X57096Y-29751D01*
X57013Y-29846D01*
X57049Y-29846D01*
X57073Y-29858D01*
X57085Y-29870D01*
X57096Y-29894D01*
X57096Y-29954D01*
X57085Y-29977D01*
X57073Y-29989D01*
X57049Y-30001D01*
X56977Y-30001D01*
X56954Y-29989D01*
X56942Y-29977D01*
X57058Y-31601D02*
X56975Y-31482D01*
X56916Y-31601D02*
X56916Y-31351D01*
X57011Y-31351D01*
X57035Y-31363D01*
X57046Y-31375D01*
X57058Y-31399D01*
X57058Y-31435D01*
X57046Y-31458D01*
X57035Y-31470D01*
X57011Y-31482D01*
X56916Y-31482D01*
X57154Y-31375D02*
X57166Y-31363D01*
X57189Y-31351D01*
X57249Y-31351D01*
X57273Y-31363D01*
X57285Y-31375D01*
X57296Y-31399D01*
X57296Y-31423D01*
X57285Y-31458D01*
X57142Y-31601D01*
X57296Y-31601D01*
X46277Y-34342D02*
X46289Y-34354D01*
X46301Y-34389D01*
X46301Y-34413D01*
X46289Y-34449D01*
X46265Y-34473D01*
X46242Y-34484D01*
X46194Y-34496D01*
X46158Y-34496D01*
X46111Y-34484D01*
X46087Y-34473D01*
X46063Y-34449D01*
X46051Y-34413D01*
X46051Y-34389D01*
X46063Y-34354D01*
X46075Y-34342D01*
X46301Y-34104D02*
X46301Y-34246D01*
X46301Y-34175D02*
X46051Y-34175D01*
X46087Y-34199D01*
X46111Y-34223D01*
X46123Y-34246D01*
X49501Y-28101D02*
X49418Y-27982D01*
X49359Y-28101D02*
X49359Y-27851D01*
X49454Y-27851D01*
X49478Y-27863D01*
X49489Y-27875D01*
X49501Y-27899D01*
X49501Y-27935D01*
X49489Y-27958D01*
X49478Y-27970D01*
X49454Y-27982D01*
X49359Y-27982D01*
X49739Y-28101D02*
X49597Y-28101D01*
X49668Y-28101D02*
X49668Y-27851D01*
X49644Y-27887D01*
X49620Y-27911D01*
X49597Y-27923D01*
X49966Y-27851D02*
X49847Y-27851D01*
X49835Y-27970D01*
X49847Y-27958D01*
X49870Y-27946D01*
X49930Y-27946D01*
X49954Y-27958D01*
X49966Y-27970D01*
X49977Y-27994D01*
X49977Y-28054D01*
X49966Y-28077D01*
X49954Y-28089D01*
X49930Y-28101D01*
X49870Y-28101D01*
X49847Y-28089D01*
X49835Y-28077D01*
X50132Y-27851D02*
X50156Y-27851D01*
X50180Y-27863D01*
X50192Y-27875D01*
X50204Y-27899D01*
X50215Y-27946D01*
X50215Y-28006D01*
X50204Y-28054D01*
X50192Y-28077D01*
X50180Y-28089D01*
X50156Y-28101D01*
X50132Y-28101D01*
X50108Y-28089D01*
X50096Y-28077D01*
X50085Y-28054D01*
X50073Y-28006D01*
X50073Y-27946D01*
X50085Y-27899D01*
X50096Y-27875D01*
X50108Y-27863D01*
X50132Y-27851D01*
X50453Y-28101D02*
X50311Y-28101D01*
X50382Y-28101D02*
X50382Y-27851D01*
X50358Y-27887D01*
X50334Y-27911D01*
X50311Y-27923D01*
X49501Y-28801D02*
X49418Y-28682D01*
X49359Y-28801D02*
X49359Y-28551D01*
X49454Y-28551D01*
X49478Y-28563D01*
X49489Y-28575D01*
X49501Y-28599D01*
X49501Y-28635D01*
X49489Y-28658D01*
X49478Y-28670D01*
X49454Y-28682D01*
X49359Y-28682D01*
X49739Y-28801D02*
X49597Y-28801D01*
X49668Y-28801D02*
X49668Y-28551D01*
X49644Y-28587D01*
X49620Y-28611D01*
X49597Y-28623D01*
X49966Y-28551D02*
X49847Y-28551D01*
X49835Y-28670D01*
X49847Y-28658D01*
X49870Y-28646D01*
X49930Y-28646D01*
X49954Y-28658D01*
X49966Y-28670D01*
X49977Y-28694D01*
X49977Y-28754D01*
X49966Y-28777D01*
X49954Y-28789D01*
X49930Y-28801D01*
X49870Y-28801D01*
X49847Y-28789D01*
X49835Y-28777D01*
X50132Y-28551D02*
X50156Y-28551D01*
X50180Y-28563D01*
X50192Y-28575D01*
X50204Y-28599D01*
X50215Y-28646D01*
X50215Y-28706D01*
X50204Y-28754D01*
X50192Y-28777D01*
X50180Y-28789D01*
X50156Y-28801D01*
X50132Y-28801D01*
X50108Y-28789D01*
X50096Y-28777D01*
X50085Y-28754D01*
X50073Y-28706D01*
X50073Y-28646D01*
X50085Y-28599D01*
X50096Y-28575D01*
X50108Y-28563D01*
X50132Y-28551D01*
X50311Y-28575D02*
X50323Y-28563D01*
X50346Y-28551D01*
X50406Y-28551D01*
X50430Y-28563D01*
X50442Y-28575D01*
X50453Y-28599D01*
X50453Y-28623D01*
X50442Y-28658D01*
X50299Y-28801D01*
X50453Y-28801D01*
X49501Y-29601D02*
X49418Y-29482D01*
X49359Y-29601D02*
X49359Y-29351D01*
X49454Y-29351D01*
X49478Y-29363D01*
X49489Y-29375D01*
X49501Y-29399D01*
X49501Y-29435D01*
X49489Y-29458D01*
X49478Y-29470D01*
X49454Y-29482D01*
X49359Y-29482D01*
X49739Y-29601D02*
X49597Y-29601D01*
X49668Y-29601D02*
X49668Y-29351D01*
X49644Y-29387D01*
X49620Y-29411D01*
X49597Y-29423D01*
X49966Y-29351D02*
X49847Y-29351D01*
X49835Y-29470D01*
X49847Y-29458D01*
X49870Y-29446D01*
X49930Y-29446D01*
X49954Y-29458D01*
X49966Y-29470D01*
X49977Y-29494D01*
X49977Y-29554D01*
X49966Y-29577D01*
X49954Y-29589D01*
X49930Y-29601D01*
X49870Y-29601D01*
X49847Y-29589D01*
X49835Y-29577D01*
X50132Y-29351D02*
X50156Y-29351D01*
X50180Y-29363D01*
X50192Y-29375D01*
X50204Y-29399D01*
X50215Y-29446D01*
X50215Y-29506D01*
X50204Y-29554D01*
X50192Y-29577D01*
X50180Y-29589D01*
X50156Y-29601D01*
X50132Y-29601D01*
X50108Y-29589D01*
X50096Y-29577D01*
X50085Y-29554D01*
X50073Y-29506D01*
X50073Y-29446D01*
X50085Y-29399D01*
X50096Y-29375D01*
X50108Y-29363D01*
X50132Y-29351D01*
X50299Y-29351D02*
X50453Y-29351D01*
X50370Y-29446D01*
X50406Y-29446D01*
X50430Y-29458D01*
X50442Y-29470D01*
X50453Y-29494D01*
X50453Y-29554D01*
X50442Y-29577D01*
X50430Y-29589D01*
X50406Y-29601D01*
X50334Y-29601D01*
X50311Y-29589D01*
X50299Y-29577D01*
X57877Y-36042D02*
X57889Y-36054D01*
X57901Y-36089D01*
X57901Y-36113D01*
X57889Y-36149D01*
X57865Y-36173D01*
X57842Y-36184D01*
X57794Y-36196D01*
X57758Y-36196D01*
X57711Y-36184D01*
X57687Y-36173D01*
X57663Y-36149D01*
X57651Y-36113D01*
X57651Y-36089D01*
X57663Y-36054D01*
X57675Y-36042D01*
X57735Y-35827D02*
X57901Y-35827D01*
X57639Y-35887D02*
X57818Y-35946D01*
X57818Y-35792D01*
X51777Y-36442D02*
X51789Y-36454D01*
X51801Y-36489D01*
X51801Y-36513D01*
X51789Y-36549D01*
X51765Y-36573D01*
X51742Y-36584D01*
X51694Y-36596D01*
X51658Y-36596D01*
X51611Y-36584D01*
X51587Y-36573D01*
X51563Y-36549D01*
X51551Y-36513D01*
X51551Y-36489D01*
X51563Y-36454D01*
X51575Y-36442D01*
X51551Y-36358D02*
X51551Y-36204D01*
X51646Y-36287D01*
X51646Y-36251D01*
X51658Y-36227D01*
X51670Y-36215D01*
X51694Y-36204D01*
X51754Y-36204D01*
X51777Y-36215D01*
X51789Y-36227D01*
X51801Y-36251D01*
X51801Y-36323D01*
X51789Y-36346D01*
X51777Y-36358D01*
X48377Y-34342D02*
X48389Y-34354D01*
X48401Y-34389D01*
X48401Y-34413D01*
X48389Y-34449D01*
X48365Y-34473D01*
X48342Y-34484D01*
X48294Y-34496D01*
X48258Y-34496D01*
X48211Y-34484D01*
X48187Y-34473D01*
X48163Y-34449D01*
X48151Y-34413D01*
X48151Y-34389D01*
X48163Y-34354D01*
X48175Y-34342D01*
X48175Y-34246D02*
X48163Y-34234D01*
X48151Y-34211D01*
X48151Y-34151D01*
X48163Y-34127D01*
X48175Y-34115D01*
X48199Y-34104D01*
X48223Y-34104D01*
X48258Y-34115D01*
X48401Y-34258D01*
X48401Y-34104D01*
X56578Y-27421D02*
X56578Y-27121D01*
X56650Y-27121D01*
X56693Y-27136D01*
X56721Y-27164D01*
X56736Y-27193D01*
X56750Y-27250D01*
X56750Y-27293D01*
X56736Y-27350D01*
X56721Y-27379D01*
X56693Y-27407D01*
X56650Y-27421D01*
X56578Y-27421D01*
X57007Y-27221D02*
X57007Y-27421D01*
X56936Y-27107D02*
X56864Y-27321D01*
X57050Y-27321D01*
X55907Y-27421D02*
X55764Y-27421D01*
X55764Y-27121D01*
X56007Y-27264D02*
X56107Y-27264D01*
X56150Y-27421D02*
X56007Y-27421D01*
X56007Y-27121D01*
X56150Y-27121D01*
X56278Y-27421D02*
X56278Y-27121D01*
X56350Y-27121D01*
X56393Y-27136D01*
X56421Y-27164D01*
X56436Y-27193D01*
X56450Y-27250D01*
X56450Y-27293D01*
X56436Y-27350D01*
X56421Y-27379D01*
X56393Y-27407D01*
X56350Y-27421D01*
X56278Y-27421D01*
X56578Y-29221D02*
X56578Y-28921D01*
X56650Y-28921D01*
X56693Y-28936D01*
X56721Y-28964D01*
X56736Y-28993D01*
X56750Y-29050D01*
X56750Y-29093D01*
X56736Y-29150D01*
X56721Y-29179D01*
X56693Y-29207D01*
X56650Y-29221D01*
X56578Y-29221D01*
X56850Y-28921D02*
X57036Y-28921D01*
X56936Y-29036D01*
X56978Y-29036D01*
X57007Y-29050D01*
X57021Y-29064D01*
X57036Y-29093D01*
X57036Y-29164D01*
X57021Y-29193D01*
X57007Y-29207D01*
X56978Y-29221D01*
X56893Y-29221D01*
X56864Y-29207D01*
X56850Y-29193D01*
X56607Y-28821D02*
X56464Y-28821D01*
X56464Y-28521D01*
X56707Y-28664D02*
X56807Y-28664D01*
X56850Y-28821D02*
X56707Y-28821D01*
X56707Y-28521D01*
X56850Y-28521D01*
X56978Y-28821D02*
X56978Y-28521D01*
X57050Y-28521D01*
X57093Y-28536D01*
X57121Y-28564D01*
X57136Y-28593D01*
X57150Y-28650D01*
X57150Y-28693D01*
X57136Y-28750D01*
X57121Y-28779D01*
X57093Y-28807D01*
X57050Y-28821D01*
X56978Y-28821D01*
X56578Y-31121D02*
X56578Y-30821D01*
X56650Y-30821D01*
X56693Y-30836D01*
X56721Y-30864D01*
X56736Y-30893D01*
X56750Y-30950D01*
X56750Y-30993D01*
X56736Y-31050D01*
X56721Y-31079D01*
X56693Y-31107D01*
X56650Y-31121D01*
X56578Y-31121D01*
X56864Y-30850D02*
X56878Y-30836D01*
X56907Y-30821D01*
X56978Y-30821D01*
X57007Y-30836D01*
X57021Y-30850D01*
X57036Y-30879D01*
X57036Y-30907D01*
X57021Y-30950D01*
X56850Y-31121D01*
X57036Y-31121D01*
X56607Y-30721D02*
X56464Y-30721D01*
X56464Y-30421D01*
X56707Y-30564D02*
X56807Y-30564D01*
X56850Y-30721D02*
X56707Y-30721D01*
X56707Y-30421D01*
X56850Y-30421D01*
X56978Y-30721D02*
X56978Y-30421D01*
X57050Y-30421D01*
X57093Y-30436D01*
X57121Y-30464D01*
X57136Y-30493D01*
X57150Y-30550D01*
X57150Y-30593D01*
X57136Y-30650D01*
X57121Y-30679D01*
X57093Y-30707D01*
X57050Y-30721D01*
X56978Y-30721D01*
X56578Y-32621D02*
X56578Y-32321D01*
X56650Y-32321D01*
X56693Y-32336D01*
X56721Y-32364D01*
X56736Y-32393D01*
X56750Y-32450D01*
X56750Y-32493D01*
X56736Y-32550D01*
X56721Y-32579D01*
X56693Y-32607D01*
X56650Y-32621D01*
X56578Y-32621D01*
X57036Y-32621D02*
X56864Y-32621D01*
X56950Y-32621D02*
X56950Y-32321D01*
X56921Y-32364D01*
X56893Y-32393D01*
X56864Y-32407D01*
X56607Y-32221D02*
X56464Y-32221D01*
X56464Y-31921D01*
X56707Y-32064D02*
X56807Y-32064D01*
X56850Y-32221D02*
X56707Y-32221D01*
X56707Y-31921D01*
X56850Y-31921D01*
X56978Y-32221D02*
X56978Y-31921D01*
X57050Y-31921D01*
X57093Y-31936D01*
X57121Y-31964D01*
X57136Y-31993D01*
X57150Y-32050D01*
X57150Y-32093D01*
X57136Y-32150D01*
X57121Y-32179D01*
X57093Y-32207D01*
X57050Y-32221D01*
X56978Y-32221D01*
G54D11*
X46815Y-30943D02*
X47215Y-31543D01*
X47215Y-30943D02*
X46815Y-31543D01*
X47757Y-31543D02*
X47414Y-31543D01*
X47586Y-31543D02*
X47586Y-30943D01*
X47529Y-31029D01*
X47471Y-31086D01*
X47414Y-31114D01*
X45915Y-32386D02*
X45886Y-32414D01*
X45800Y-32443D01*
X45743Y-32443D01*
X45658Y-32414D01*
X45600Y-32357D01*
X45572Y-32300D01*
X45543Y-32186D01*
X45543Y-32100D01*
X45572Y-31986D01*
X45600Y-31929D01*
X45658Y-31871D01*
X45743Y-31843D01*
X45800Y-31843D01*
X45886Y-31871D01*
X45915Y-31900D01*
X46515Y-32443D02*
X46315Y-32157D01*
X46172Y-32443D02*
X46172Y-31843D01*
X46400Y-31843D01*
X46458Y-31871D01*
X46486Y-31900D01*
X46515Y-31957D01*
X46515Y-32043D01*
X46486Y-32100D01*
X46458Y-32129D01*
X46400Y-32157D01*
X46172Y-32157D01*
X46886Y-32157D02*
X46886Y-32443D01*
X46686Y-31843D02*
X46886Y-32157D01*
X47086Y-31843D01*
X47257Y-32414D02*
X47343Y-32443D01*
X47486Y-32443D01*
X47543Y-32414D01*
X47572Y-32386D01*
X47600Y-32329D01*
X47600Y-32271D01*
X47572Y-32214D01*
X47543Y-32186D01*
X47486Y-32157D01*
X47372Y-32129D01*
X47314Y-32100D01*
X47286Y-32071D01*
X47257Y-32014D01*
X47257Y-31957D01*
X47286Y-31900D01*
X47314Y-31871D01*
X47372Y-31843D01*
X47514Y-31843D01*
X47600Y-31871D01*
X47771Y-31843D02*
X48114Y-31843D01*
X47943Y-32443D02*
X47943Y-31843D01*
X48285Y-32271D02*
X48571Y-32271D01*
X48228Y-32443D02*
X48428Y-31843D01*
X48628Y-32443D01*
X49114Y-32443D02*
X48828Y-32443D01*
X48828Y-31843D01*
G54D13*
X49817Y-26823D02*
X49650Y-26561D01*
X49531Y-26823D02*
X49531Y-26273D01*
X49722Y-26273D01*
X49769Y-26299D01*
X49793Y-26325D01*
X49817Y-26377D01*
X49817Y-26456D01*
X49793Y-26508D01*
X49769Y-26535D01*
X49722Y-26561D01*
X49531Y-26561D01*
X50293Y-26823D02*
X50007Y-26823D01*
X50150Y-26823D02*
X50150Y-26273D01*
X50102Y-26351D01*
X50055Y-26404D01*
X50007Y-26430D01*
G54D12*
X51077Y-30342D02*
X51089Y-30354D01*
X51101Y-30389D01*
X51101Y-30413D01*
X51089Y-30449D01*
X51065Y-30473D01*
X51042Y-30484D01*
X50994Y-30496D01*
X50958Y-30496D01*
X50911Y-30484D01*
X50887Y-30473D01*
X50863Y-30449D01*
X50851Y-30413D01*
X50851Y-30389D01*
X50863Y-30354D01*
X50875Y-30342D01*
X50851Y-30115D02*
X50851Y-30234D01*
X50970Y-30246D01*
X50958Y-30234D01*
X50946Y-30211D01*
X50946Y-30151D01*
X50958Y-30127D01*
X50970Y-30115D01*
X50994Y-30104D01*
X51054Y-30104D01*
X51077Y-30115D01*
X51089Y-30127D01*
X51101Y-30151D01*
X51101Y-30211D01*
X51089Y-30234D01*
X51077Y-30246D01*
X40949Y-29882D02*
X40949Y-29682D01*
X41025Y-29682D01*
X41044Y-29691D01*
X41053Y-29701D01*
X41063Y-29720D01*
X41063Y-29749D01*
X41053Y-29768D01*
X41044Y-29777D01*
X41025Y-29787D01*
X40949Y-29787D01*
X41149Y-29882D02*
X41149Y-29682D01*
X41244Y-29882D02*
X41244Y-29682D01*
X41358Y-29882D01*
X41358Y-29682D01*
X41425Y-29682D02*
X41539Y-29682D01*
X41482Y-29882D02*
X41482Y-29682D01*
X41596Y-29872D02*
X41625Y-29882D01*
X41672Y-29882D01*
X41691Y-29872D01*
X41701Y-29863D01*
X41710Y-29844D01*
X41710Y-29825D01*
X41701Y-29806D01*
X41691Y-29796D01*
X41672Y-29787D01*
X41634Y-29777D01*
X41615Y-29768D01*
X41606Y-29758D01*
X41596Y-29739D01*
X41596Y-29720D01*
X41606Y-29701D01*
X41615Y-29691D01*
X41634Y-29682D01*
X41682Y-29682D01*
X41710Y-29691D01*
X41767Y-29682D02*
X41881Y-29682D01*
X41824Y-29882D02*
X41824Y-29682D01*
X40949Y-31682D02*
X40949Y-31482D01*
X41025Y-31482D01*
X41044Y-31491D01*
X41053Y-31501D01*
X41063Y-31520D01*
X41063Y-31549D01*
X41053Y-31568D01*
X41044Y-31577D01*
X41025Y-31587D01*
X40949Y-31587D01*
X41149Y-31682D02*
X41149Y-31482D01*
X41244Y-31682D02*
X41244Y-31482D01*
X41358Y-31682D01*
X41358Y-31482D01*
X41425Y-31482D02*
X41539Y-31482D01*
X41482Y-31682D02*
X41482Y-31482D01*
X41596Y-31672D02*
X41625Y-31682D01*
X41672Y-31682D01*
X41691Y-31672D01*
X41701Y-31663D01*
X41710Y-31644D01*
X41710Y-31625D01*
X41701Y-31606D01*
X41691Y-31596D01*
X41672Y-31587D01*
X41634Y-31577D01*
X41615Y-31568D01*
X41606Y-31558D01*
X41596Y-31539D01*
X41596Y-31520D01*
X41606Y-31501D01*
X41615Y-31491D01*
X41634Y-31482D01*
X41682Y-31482D01*
X41710Y-31491D01*
X41767Y-31482D02*
X41881Y-31482D01*
X41824Y-31682D02*
X41824Y-31482D01*
M02*
